<?xml version="1.0" encoding="UTF-8"?>
<!DOCTYPE svg PUBLIC "-//W3C//DTD SVG 1.1//EN" "http://www.w3.org/Graphics/SVG/1.1/DTD/svg11.dtd">
<!-- Creator: CorelDRAW X6 -->
<svg xmlns="http://www.w3.org/2000/svg" xml:space="preserve" width="6.41666in" height="10.4444in" version="1.1" style="shape-rendering:geometricPrecision; text-rendering:geometricPrecision; image-rendering:optimizeQuality; fill-rule:evenodd; clip-rule:evenodd"
viewBox="0 0 6417 10444"
 xmlns:xlink="http://www.w3.org/1999/xlink">
 <defs>
  <style type="text/css">
   <![CDATA[
    .fil0 {fill:#282828;fill-rule:nonzero}
   ]]>
  </style>
 </defs>
 <g id="Layer_x0020_1">
  <metadata id="CorelCorpID_0Corel-Layer"/>
  <path class="fil0" d="M2907 5221l3168 -3168c227,-227 353,-530 353,-851 0,-322 -125,-624 -353,-852 -235,-235 -543,-352 -852,-352 -308,0 -617,117 -852,352l-4001 4001 -18 18c-227,227 -353,530 -353,852 0,322 125,624 353,852l4019 4019c228,228 530,353 852,353 322,0 624,-125 852,-353 227,-228 353,-530 353,-852 0,-322 -125,-624 -353,-851l-3168 -3168z"/>
 </g>
</svg>
